HIERARCHY
ROOT SpineBase
{
  OFFSET 0.000000 0.000000 0.000000
  CHANNELS 6 Xposition Yposition Zposition Zrotation Xrotation Yrotation
  JOINT SpineMid
  {
    OFFSET 0.000000 27.499793 0.000000
    CHANNELS 3 Zrotation Xrotation Yrotation
    JOINT SpineShoulder
    {
      OFFSET -0.040999 20.515519 -0.627671
      CHANNELS 3 Zrotation Xrotation Yrotation
      JOINT Neck
      {
        OFFSET -0.006248 6.812065 -0.473301
        CHANNELS 3 Zrotation Xrotation Yrotation
        JOINT Head
        {
          OFFSET 4.211252 13.589466 0.407096
          CHANNELS 3 Zrotation Xrotation Yrotation
          End Site
          {
            OFFSET 0 0 0
          }
        }
      }
      JOINT ShoulderLeft
      {
        OFFSET -9.478895 -3.702108 -12.167915
        CHANNELS 3 Zrotation Xrotation Yrotation
        JOINT ElbowLeft
        {
          OFFSET -2.334398 -21.102004 -5.438229
          CHANNELS 3 Zrotation Xrotation Yrotation
          JOINT WristLeft
          {
            OFFSET 17.761572 -19.697098 3.635382
            CHANNELS 3 Zrotation Xrotation Yrotation
            JOINT HandLeft
            {
              OFFSET 7.977395 -4.478321 3.024467
              CHANNELS 3 Zrotation Xrotation Yrotation
              JOINT HandTipLeft
              {
                OFFSET 3.760143 -2.489092 2.858328
                CHANNELS 3 Zrotation Xrotation Yrotation
                End Site
                {
                  OFFSET 0 0 0
                }
              }
              JOINT ThumbLeft
              {
                OFFSET -0.087342 -2.121125 -2.029693
                CHANNELS 3 Zrotation Xrotation Yrotation
                End Site
                {
                  OFFSET 0 0 0
                }
              }
            }
          }
        }
      }
      JOINT ShoulderRight
      {
        OFFSET 11.733584 -3.043758 11.443749
        CHANNELS 3 Zrotation Xrotation Yrotation
        JOINT ElbowRight
        {
          OFFSET -0.349707 -22.586411 3.332280
          CHANNELS 3 Zrotation Xrotation Yrotation
          JOINT WristRight
          {
            OFFSET 3.668245 -18.919983 -17.299050
            CHANNELS 3 Zrotation Xrotation Yrotation
            JOINT HandRight
            {
              OFFSET 0.927882 -2.928080 -3.412123
              CHANNELS 3 Zrotation Xrotation Yrotation
              JOINT HandTipRight
              {
                OFFSET -0.792278 -5.276094 -4.520639
                CHANNELS 3 Zrotation Xrotation Yrotation
                End Site
                {
                  OFFSET 0 0 0
                }
              }
              JOINT ThumbRight
              {
                OFFSET 2.388282 -1.569213 -1.003511
                CHANNELS 3 Zrotation Xrotation Yrotation
                End Site
                {
                  OFFSET 0 0 0
                }
              }
            }
          }
        }
      }
    }
  }
  JOINT HipLeft
  {
    OFFSET -4.170181 1.452780 -6.803696
    CHANNELS 3 Zrotation Xrotation Yrotation
    JOINT KneeLeft
    {
      OFFSET -5.808709 -29.134918 1.550483
      CHANNELS 3 Zrotation Xrotation Yrotation
      JOINT AnkleLeft
      {
        OFFSET -5.282359 -35.519296 8.910416
        CHANNELS 3 Zrotation Xrotation Yrotation
        JOINT FootLeft
        {
          OFFSET 5.485545 -5.882008 -5.211414
          CHANNELS 3 Zrotation Xrotation Yrotation
          End Site
          {
            OFFSET 0 0 0
          }
        }
      }
    }
  }
  JOINT HipRight
  {
    OFFSET 4.361296 -0.192136 1.224367
    CHANNELS 3 Zrotation Xrotation Yrotation
    JOINT KneeRight
    {
      OFFSET -0.880913 -32.016625 7.860821
      CHANNELS 3 Zrotation Xrotation Yrotation
      JOINT AnkleRight
      {
        OFFSET -6.134887 -30.979868 5.380907
        CHANNELS 3 Zrotation Xrotation Yrotation
        JOINT FootRight
        {
          OFFSET -2.893743 -6.809079 -6.249603
          CHANNELS 3 Zrotation Xrotation Yrotation
          End Site
          {
            OFFSET 0 0 0
          }
        }
      }
    }
  }
}
MOTION
Frames: 5
Frame Time: 0.033333
-4.414197 67.198268 340.891828 -9.459690 1.500621 -20.837095 -0.053202 0.317261 20.703743 -0.287439 -0.279152 -0.417176 12.575161 17.592124 -5.660218 0.000000 0.000000 0.000000 4.290565 -5.101077 2.295937 -33.739260 16.275457 12.874867 15.604985 1.886629 24.723693 -22.238375 29.657680 45.629371 0.000000 0.000000 0.000000 0.000000 0.000000 0.000000 30.159127 21.040643 -0.060713 -17.757104 -17.873939 -7.971543 -0.963424 3.295157 1.444863 7.625188 41.105080 -14.373204 0.000000 0.000000 0.000000 0.000000 0.000000 0.000000 -5.092960 -0.837029 19.686313 0.520084 -8.368005 -2.353730 2.694670 21.774133 27.153102 0.000000 0.000000 0.000000 4.256555 17.166143 21.400032 -3.883893 -17.239690 -1.018799 35.583310 17.914502 -40.892114 0.000000 0.000000 0.000000
-3.852918 66.749991 341.121438 -10.498005 -0.346104 -22.860256 0.062737 0.199945 22.524307 -0.307927 -0.224294 -0.445820 12.215538 16.602316 -4.593827 0.000000 0.000000 0.000000 -14.810315 -14.609975 5.916520 -35.363220 22.751907 2.853798 -1.247723 11.047362 6.453755 -28.999754 21.085336 32.421829 0.000000 0.000000 0.000000 0.000000 0.000000 0.000000 24.489724 19.266248 0.043746 -11.043096 -28.039147 -8.531698 -3.721769 -0.182103 2.649672 2.544219 47.515300 -5.914042 0.000000 0.000000 0.000000 0.000000 0.000000 0.000000 -4.340855 1.784362 21.901329 0.144667 -9.868962 -2.225840 3.997334 21.548453 24.082586 0.000000 0.000000 0.000000 3.329926 20.601989 23.521535 -5.433114 -18.798100 -1.746010 37.326853 14.886408 -40.080655 0.000000 0.000000 0.000000
-3.714360 66.716527 341.424684 -11.409088 -1.835652 -23.522907 0.114716 0.237654 23.006076 -0.269677 -0.245493 -0.474347 8.980089 15.128335 -3.001327 0.000000 0.000000 0.000000 -29.857257 -22.606561 6.786870 -36.675271 29.315588 -5.763997 -6.585189 21.894223 -12.695622 -2.321992 17.919522 -3.400197 0.000000 0.000000 0.000000 0.000000 0.000000 0.000000 21.674887 18.925439 -0.040530 -5.319429 -35.623802 -10.482980 -5.707859 -3.373729 3.861306 -1.743505 55.927716 0.108912 0.000000 0.000000 0.000000 0.000000 0.000000 0.000000 -3.692572 3.449590 22.691484 1.202938 -9.774143 -1.757578 -1.330901 15.777826 24.222525 0.000000 0.000000 0.000000 3.063177 21.701977 24.018207 -5.020891 -17.568175 -1.700531 36.930208 14.087601 -38.846146 0.000000 0.000000 0.000000
-4.033570 67.875274 341.813188 -12.655167 -3.292671 -23.337856 0.148893 0.275284 22.599915 -0.172585 -0.218492 -0.510820 7.462329 13.953522 -1.807474 0.000000 0.000000 0.000000 -38.689375 -27.129170 6.781083 -36.886364 33.951437 -13.438287 -5.132511 30.103899 -28.880529 21.282173 16.831819 -4.964764 0.000000 0.000000 0.000000 0.000000 0.000000 0.000000 23.307722 19.853496 -0.391874 -6.096063 -36.588624 -10.954257 -5.766626 -5.721061 3.472940 -3.018926 58.631357 2.116038 0.000000 0.000000 0.000000 0.000000 0.000000 0.000000 -2.372550 5.236167 22.569137 2.704123 -8.489839 -1.147013 -14.411932 2.448770 27.368754 0.000000 0.000000 0.000000 3.693947 21.789496 23.406436 -2.646938 -14.682825 -0.876239 35.202308 12.245095 -37.628424 0.000000 0.000000 0.000000
-4.597765 69.725813 342.272911 -13.744883 -4.309024 -22.427918 0.054980 0.131141 21.489639 -0.110820 -0.170763 -0.549952 6.787728 13.260786 -0.987385 0.000000 0.000000 0.000000 -45.308782 -30.439312 6.394563 -32.423775 37.645782 -21.269903 -5.177720 31.451252 -25.160946 19.561176 16.057518 -11.649898 0.000000 0.000000 0.000000 0.000000 0.000000 0.000000 29.818427 25.323239 -1.868676 -9.536881 -32.240115 -11.219136 -2.889954 -13.492835 -2.660813 -17.560823 65.803697 12.770558 0.000000 0.000000 0.000000 0.000000 0.000000 0.000000 -0.742139 6.583838 21.618657 4.435844 -6.710590 -0.513290 -27.567028 -12.024525 26.476107 0.000000 0.000000 0.000000 4.897725 20.892290 21.955388 -0.283497 -11.416429 -0.151145 32.603466 11.532712 -36.087364 0.000000 0.000000 0.000000
